<?xml version="1.0" encoding="UTF-8"?>
<!-- Created with Inkscape (http://www.inkscape.org/) -->
<svg width="47.148" height="32" inkscapeVersion="1.2 (dc2aedaf03, 2022-05-15)" sodipodiDocname="btn_next.svg" version="1.1" viewBox="0 0 12.475 8.4667" xmlns="http://www.w3.org/2000/svg" xmlnsSvg="http://www.w3.org/2000/svg">
 <sodipodiNamedview bordercolor="#000000" borderopacity="0.25" inkscapeCurrent-layer="layer1" inkscapeCx="9.4025489" inkscapeCy="22.341099" inkscapeDeskcolor="#d1d1d1" inkscapeDocument-units="mm" inkscapePagecheckerboard="0" inkscapePageopacity="0.0" inkscapeShowpageshadow="2" inkscapeWindow-height="1027" inkscapeWindow-maximized="1" inkscapeWindow-width="1920" inkscapeWindow-x="-8" inkscapeWindow-y="-8" inkscapeZoom="6.2217172" pagecolor="#ffffff" showgrid="false"/>
 <g transform="translate(1.8912)">
  <g transform="matrix(1.1197 0 0 1 -.61509 0)" fill="#ffc800" fill-rule="evenodd">
   <path d="m0.54933 2.2349h3.1832v3.9969h-3.1832z" stroke-width=".18155"/>
   <path d="m0.54933 3.6518 4.1837-3.6518v8.4667l-4.1837-3.6518z" stroke-width=".18454"/>
  </g>
  <g transform="translate(-1.0595)" fill="none" stroke="#fff" stroke-linecap="round">
   <g stroke-width=".66146">
    <path transform="rotate(225)" d="m-6.5416 2.7959a2.4321 2.4321 0 0 1-1.7197-0.71234 2.4321 2.4321 0 0 1-0.71234-1.7197"/>
    <path transform="rotate(225)" d="m-6.8223 4.012a3.3676 3.3676 0 0 1-2.3812-0.98634 3.3676 3.3676 0 0 1-0.98634-2.3812"/>
    <path transform="rotate(225)" d="m-7.1029 5.2281a4.303 4.303 0 0 1-3.0427-1.2603 4.303 4.303 0 0 1-1.2603-3.0427"/>
   </g>
   <path transform="rotate(225)" d="m-7.2881 6.5397a5.2384 5.2384 0 0 1-3.7041-1.5343 5.2384 5.2384 0 0 1-1.5343-3.7041" stroke-width=".66153"/>
  </g>
 </g>
</svg>
