<?xml version="1.0" encoding="UTF-8"?>
<!-- Created with Inkscape (http://www.inkscape.org/) -->
<svg width="16.933mm" height="16.933mm" version="1.1" viewBox="0 0 16.933 16.933" xmlns="http://www.w3.org/2000/svg">
 <g transform="translate(-93.411 -81.143)">
  <g fill="#ffc800" fill-rule="evenodd" stroke-linecap="round" stroke-width=".28002">
   <path d="m101.8 82.608c-1.0267-0.42854-0.91583 0.91764-2.0284 0.91462-1.1126-3e-3 -0.99435-1.3487-2.0234-0.92569-1.029 0.42297 0.0015 1.297-0.78724 2.0816-0.78882 0.78455-1.6566-0.25079-2.0851 0.7759-0.42853 1.0267 0.91853 0.91546 0.91555 2.028-3e-3 1.1125-1.3495 0.99465-0.9265 2.0236 0.42301 1.029 1.2964-0.0017 2.0811 0.78705 0.7846 0.78881-0.25074 1.6565 0.776 2.085 1.0268 0.42853 0.91583-0.91764 2.0284-0.91463 1.1126 3e-3 0.99434 1.3487 2.0234 0.92569 1.029-0.42297-2e-3 -1.2964 0.78598-2.0814 0.78881-0.78454 1.658 0.25065 2.0865-0.77604 0.42853-1.0267-0.91852-0.91545-0.91555-2.028 3e-3 -1.1126 1.3489-0.99489 0.9259-2.0239-0.0463-0.11235-0.0979-0.19988-0.15407-0.26818l-6e-4 -2.28e-4c-0.45882-0.55565-1.2272 0.18382-1.9257-0.51851-0.78458-0.78881 0.25014-1.6567-0.77659-2.0853zm-2.8863 1.0251a3.9554 3.9552 20.868 0 0-0.22493 0.05687c0.07438-0.02109 0.14933-0.04011 0.22493-0.05687zm-0.33142 0.0886a3.9554 3.9552 20.868 0 0-0.23184 0.08041c0.07631-0.02921 0.1538-0.0559 0.23184-0.08041zm-0.34896 0.12739a3.9554 3.9552 20.868 0 0-0.17365 0.07779c0.05718-0.02724 0.11522-0.05328 0.17365-0.07779zm-0.26273 0.12168a3.9554 3.9552 20.868 0 0-0.2299 0.12593c0.07514-0.04452 0.15207-0.08646 0.2299-0.12593zm2.7303 1.0595c1.3682 0.52159 2.0457 2.0328 1.5241 3.4009-0.52157 1.3681-2.0341 2.0472-3.4023 1.5256-1.3682-0.52159-2.0466-2.0359-1.525-3.404 0.52157-1.3681 2.035-2.0441 3.4031-1.5225zm-3.0727-0.86415a3.9554 3.9552 20.868 0 0-0.16934 0.11526c0.05571-0.03973 0.11173-0.07852 0.16934-0.11526zm-0.30862 0.21855c-0.0348 0.02718-0.06886 0.05508-0.10278 0.08343a3.9554 3.9552 20.868 0 1 0.04807-0.04298 3.9554 3.9552 20.868 0 1 0.0547-0.04045zm2.9113 1.8767a1.3185 1.3184 20.868 0 0-1.7016 0.76225 1.3185 1.3184 20.868 0 0 0.76234 1.7016 1.3185 1.3184 20.868 0 0 1.7016-0.76225 1.3185 1.3184 20.868 0 0-0.76233-1.7016zm2.9606 3.2003c-0.0464 0.08055-0.095 0.15927-0.14644 0.2356a3.9554 3.9552 20.868 0 0 0.14644-0.2356zm-0.20196 0.31639c-0.0436 0.06126-0.089 0.12079-0.13566 0.17908a3.9554 3.9552 20.868 0 1-0.0464 0.05672c0.016-0.01873 0.0312-0.03752 0.0464-0.05672a3.9554 3.9552 20.868 0 0 0.13566-0.17908zm-0.29662 0.3678a3.9554 3.9552 20.868 0 1-0.0957 0.10132c0.0324-0.03315 0.0643-0.06695 0.0957-0.10132zm-0.098 0.10319a3.9554 3.9552 20.868 0 1-0.33746 0.31228 3.9554 3.9552 20.868 0 1-0.11521 0.08559c0.16017-0.12036 0.31138-0.25346 0.45275-0.39784zm-6.7501-2.2206a3.9554 3.9552 20.868 0 0 0.04002 0.23296c-0.01551-0.0772-0.02909-0.15476-0.04002-0.23296zm0.05002 0.28086a3.9554 3.9552 20.868 0 0 0.07828 0.30611c-0.03008-0.10086-0.05623-0.20294-0.07828-0.30611zm6.202 2.3715c-0.0827 0.0602-0.16772 0.11671-0.2544 0.17032a3.9554 3.9552 20.868 0 1-0.0387 0.02381c-0.0749 0.04518-0.15144 0.08751-0.22915 0.12759a3.9554 3.9552 20.868 0 1-0.0757 0.03799c-0.0773 0.03786-0.15541 0.07396-0.23498 0.10677a3.9554 3.9552 20.868 0 0 0.23498-0.10677c0.0254-0.0124 0.0507-0.02499 0.0757-0.03799a3.9554 3.9552 20.868 0 0 0.22915-0.12759c0.0136-0.0077 0.0259-0.01582 0.0387-0.02381a3.9554 3.9552 20.868 0 0 0.2544-0.17032zm-6.122-2.059c0.0032 0.01078 0.0066 0.02135 0.0098 0.03201a3.9554 3.9552 20.868 0 0 0.09682 0.27736c0.0063 0.01609 0.01305 0.03208 0.01955 0.04811a3.9554 3.9552 20.868 0 0 0.11465 0.2559c0.0076 0.0156 0.01506 0.0312 0.02289 0.04661a3.9554 3.9552 20.868 0 0 0.14254 0.25684c0.0057 0.0096 0.0115 0.01916 0.01734 0.02865a3.9554 3.9552 20.868 0 1-0.01734-0.02865c-0.05063-0.08396-0.09824-0.16952-0.14252-0.25688a3.9554 3.9552 20.868 0 1-0.02289-0.04661c-0.04116-0.08388-0.07944-0.16934-0.11465-0.2559a3.9554 3.9552 20.868 0 1-0.01955-0.04811c-0.03573-0.0912-0.06787-0.18369-0.09682-0.27736a3.9554 3.9552 20.868 0 1-0.0098-0.03201zm5.2473 2.5426c-0.0949 0.03796-0.19143 0.07208-0.28921 0.10263a3.9554 3.9552 20.868 0 0 0.28921-0.10263zm-4.8203-1.5917a3.9554 3.9552 20.868 0 0 0.17632 0.26219c-0.06231-0.08515-0.12108-0.17259-0.17632-0.26219zm4.44 1.7216c-0.0736 0.02116-0.14857 0.03985-0.22351 0.05671a3.9554 3.9552 20.868 0 0 0.22351-0.05671zm-4.2393-1.426c0.04875 0.06516 0.09965 0.12887 0.15244 0.19109a3.9554 3.9552 20.868 0 1-0.06222-0.06987 3.9554 3.9552 20.868 0 1-0.09021-0.1212z"/>
   <path d="m105.6 89.608c-0.7787-0.0033-0.34768 0.83826-1.0684 1.1333-0.72067 0.295-1.0033-0.60735-1.5562-0.05899-0.55295 0.54836 0.34707 0.8389 0.0461 1.5571-0.30102 0.71824-1.1388 0.27985-1.1421 1.0586-3e-3 0.77876 0.83864 0.34725 1.1336 1.068 0.29498 0.72074-0.60773 1.0038-0.0594 1.5568 0.54831 0.55298 0.8384-0.3471 1.5566-0.04609 0.71818 0.30104 0.27987 1.1389 1.0585 1.1421 0.7787 0.0033 0.34768-0.83826 1.0684-1.1333 0.72069-0.295 1.0033 0.60735 1.5562 0.05899 0.55294-0.54836-0.34719-0.83846-0.046-1.5567 0.30102-0.71823 1.1397-0.28032 1.1429-1.0591 3e-3 -0.77876-0.83862-0.34725-1.1336-1.068-0.29501-0.72076 0.60728-1.0038 0.059-1.5568-0.06-0.06036-0.11663-0.10324-0.17127-0.13242l-4.4e-4 1.2e-5c-0.44516-0.23711-0.74495 0.44648-1.3844 0.17845-0.71816-0.30105-0.28028-1.1389-1.059-1.1421zm-1.594 1.4337a2.7686 2.7684 88.455 0 0-0.13035 0.09683c0.0426-0.03351 0.086-0.0658 0.13035-0.09683zm-0.19078 0.14579a2.7686 2.7684 88.455 0 0-0.12855 0.11392c0.0415-0.03927 0.0846-0.07724 0.12855-0.11392zm-0.19179 0.17557a2.7686 2.7684 88.455 0 0-0.0916 0.09669c0.0297-0.03289 0.0603-0.06524 0.0916-0.09669zm-0.13753 0.14886a2.7686 2.7684 88.455 0 0-0.11515 0.14285c0.0369-0.04886 0.0753-0.09652 0.11515-0.14285zm2.0493-0.04312c1.0245-0.02764 1.8662 0.76945 1.8938 1.794 0.0277 1.0245-0.76981 1.8677-1.7943 1.8953-1.0245 0.02764-1.8676-0.77122-1.8952-1.7958-0.0277-1.0245 0.77121-1.8659 1.7957-1.8935zm-2.2188 0.26091a2.7686 2.7684 88.455 0 0-0.0788 0.11978c0.0254-0.04057 0.0514-0.08062 0.0788-0.11978zm-0.14137 0.2238c-0.0153 0.02687-0.0299 0.05403-0.0442 0.08142a2.7686 2.7684 88.455 0 1 0.0196-0.04065 2.7686 2.7684 88.455 0 1 0.0246-0.04077zm2.3846 0.4374a0.92288 0.92281 88.455 0 0-0.89759 0.94743 0.92288 0.92281 88.455 0 0 0.94737 0.89766 0.92288 0.92281 88.455 0 0 0.89759-0.94743 0.92288 0.92281 88.455 0 0-0.94737-0.89766zm2.7697 1.2808c-8e-3 0.06454-0.019 0.12843-0.0318 0.19154a2.7686 2.7684 88.455 0 0 0.0318-0.19154zm-0.0462 0.25865c-0.0118 0.05127-0.0254 0.10193-0.04 0.15209a2.7686 2.7684 88.455 0 1-0.0149 0.04908c5e-3 -0.01644 0.0101-0.0326 0.0149-0.04908a2.7686 2.7684 88.455 0 0 0.04-0.15209zm-0.0938 0.31718a2.7686 2.7684 88.455 0 1-0.035 0.09111c0.0122-0.03013 0.0239-0.0605 0.035-0.09111zm-0.0358 0.09294a2.7686 2.7684 88.455 0 1-0.135 0.29215 2.7686 2.7684 88.455 0 1-0.0519 0.08616c0.0715-0.12065 0.13383-0.24713 0.18678-0.37829zm-4.9602 0.36461a2.7686 2.7684 88.455 0 0 0.0881 0.14008c-0.0307-0.04582-0.0601-0.09238-0.0881-0.14008zm0.1073 0.16841a2.7686 2.7684 88.455 0 0 0.1323 0.17721c-0.0463-0.05725-0.0906-0.11631-0.1323-0.17721zm4.6458-0.12083c-0.0374 0.06102-0.0774 0.1203-0.11914 0.17812a2.7686 2.7684 88.455 0 1-0.0186 0.02575c-0.0364 0.04922-0.0748 0.09706-0.11422 0.14373a2.7686 2.7684 88.455 0 1-0.0389 0.04477c-0.0399 0.04515-0.0808 0.08934-0.12355 0.1318a2.7686 2.7684 88.455 0 0 0.12355-0.1318c0.0132-0.0148 0.0261-0.02969 0.0389-0.04477a2.7686 2.7684 88.455 0 0 0.11422-0.14373c7e-3 -0.0086 0.0125-0.01713 0.0186-0.02575a2.7686 2.7684 88.455 0 0 0.11914-0.17812zm-4.5107 0.30156c4e-3 0.0062 0.01 0.01209 0.015 0.01805a2.7686 2.7684 88.455 0 0 0.13664 0.15365c9e-3 0.0087 0.017 0.01728 0.0255 0.0259a2.7686 2.7684 88.455 0 0 0.14247 0.135c0.01 8e-3 0.0181 0.01616 0.0273 0.02404a2.7686 2.7684 88.455 0 0 0.16076 0.12819c6e-3 0.0046 0.0128 0.0093 0.0189 0.01391a2.7686 2.7684 88.455 0 1-0.0189-0.01391c-0.0552-0.04083-0.10882-0.08347-0.16076-0.12819a2.7686 2.7684 88.455 0 1-0.0273-0.02404c-0.0491-0.04332-0.0966-0.08839-0.14247-0.135a2.7686 2.7684 88.455 0 1-0.0255-0.0259c-0.0474-0.04948-0.093-0.10075-0.13664-0.15365a2.7686 2.7684 88.455 0 1-0.015-0.01805zm4.0738 0.24487c-0.0513 0.0499-0.10463 0.09774-0.15973 0.1436a2.7686 2.7684 88.455 0 0 0.15973-0.1436zm-3.5437 0.25649a2.7686 2.7684 88.455 0 0 0.18406 0.12261c-0.063-0.03847-0.12441-0.07937-0.18406-0.12261zm3.3323-0.07096c-0.0421 0.03334-0.0854 0.06543-0.12948 0.09636a2.7686 2.7684 88.455 0 0 0.12948-0.09636zm-3.1235 0.20868c0.0489 0.02917 0.0989 0.05679 0.14963 0.08298a2.7686 2.7684 88.455 0 1-0.0589-0.02862 2.7686 2.7684 88.455 0 1-0.0907-0.05435z"/>
  </g>
 </g>
</svg>
