<?xml version="1.0" encoding="UTF-8"?>
<!-- Created with Inkscape (http://www.inkscape.org/) -->
<svg width="64" height="64" version="1.1" viewBox="0 0 16.933 16.933" xmlns="http://www.w3.org/2000/svg">
 <path d="m16.933 8.4665a8.4665 8.4665 0 0 1-8.4665 8.4665 8.4665 8.4665 0 0 1-8.4665-8.4665 8.4665 8.4665 0 0 1 8.4665-8.4665 8.4665 8.4665 0 0 1 8.4665 8.4665z" fill="#ffc800" fill-rule="evenodd" stroke-linecap="round" stroke-linejoin="round" stroke-width=".99998"/>
 <g fill="#222" fill-rule="evenodd">
  <path transform="matrix(.96794 -.25116 .26667 .96379 0 0)" d="m10.053 4.844c-0.14511-0.037816-0.29435 0.049121-0.3345 0.19486l-2.5143 9.1261a2.6725 2.0828 6.1499e-14 0 0-2.0167-0.7159 2.6725 2.0828 6.1499e-14 0 0-2.6724 2.0825 2.6725 2.0828 6.1499e-14 0 0 2.6726 2.083 2.6725 2.0828 6.1499e-14 0 0 2.6356-1.7436c0.0065436-0.014008 0.012146-0.028584 0.016389-0.043984l2.2611-8.2072c0.031463 0.086921 0.064101 0.17434 0.098476 0.26265 0.42777 1.099 1.0962 2.3112 1.3371 3.4288 0.24089 1.1176 0.14726 2.045-1.0034 2.9464-0.21841 0.17152-0.2597 0.48516-0.092332 0.70138 0.16804 0.21569 0.48106 0.25194 0.69998 0.08108 1.4316-1.1215 1.6593-2.6242 1.3725-3.9547-0.28678-1.3305-0.99481-2.5849-1.3814-3.5781-0.33264-0.85457-0.39638-1.7992-0.3931-2.2026 0.040151-0.14573-0.044401-0.2936-0.18951-0.33141l-0.49611-0.12929z" stroke-width="0"/>
  <rect x="2.5796" y="4.3405" width="6.5483" height="1.0583" ry=".18228"/>
  <rect x="1.6867" y="6.6518" width="7.4413" height="1.0583" ry=".18228"/>
  <rect x="1.6867" y="8.9632" width="7.4413" height="1.0583" ry=".18228"/>
 </g>
</svg>
