<?xml version="1.0" encoding="UTF-8"?>
<!-- Created with Inkscape (http://www.inkscape.org/) -->
<svg width="16.933mm" height="16.933mm" version="1.1" viewBox="0 0 16.933 16.933" xmlns="http://www.w3.org/2000/svg">
 <g transform="translate(-93.411 -81.143)">
  <path d="m101.88 81.143a8.4667 8.4667 0 0 0-8.4667 8.4667 8.4667 8.4667 0 0 0 8.4667 8.4667 8.4667 8.4667 0 0 0 8.4667-8.4667 8.4667 8.4667 0 0 0-8.4667-8.4667zm3.2122 2.9027 2.1916 3.7956h-4.3827l0.56637-0.98134a1.0583 1.0583 0 0 0-5.1e-4 -5.17e-4c-0.98381-0.568-2.1902-0.568-3.174 0-0.98382 0.568-1.5875 1.6142-1.5875 2.7502a1.0583 1.0583 0 0 1-1.0588 1.0588 1.0583 1.0583 0 0 1-1.0583-1.0588c0-1.8888 1.0106-3.6377 2.6464-4.5822 1.6356-0.94434 3.6549-0.94419 5.2906 0l0.56689-0.98185zm0.98444 4.5057a1.0583 1.0583 0 0 1 1.0583 1.0583c0 1.8888-1.0106 3.6377-2.6464 4.5821-1.6265 0.93904-3.6325 0.94438-5.2632 0.01602l-0.55759 0.96583-2.1916-3.7956h4.3827l-0.57516 0.99684c0.97878 0.55244 2.1718 0.5478 3.1466-0.014987 0.9838-0.56801 1.5875-1.6142 1.5875-2.7502a1.0583 1.0583 0 0 1 1.0588-1.0583z" fill="#ffc800" fill-rule="evenodd" stroke-linecap="round" stroke-width=".706"/>
 </g>
</svg>
