<?xml version="1.0" encoding="UTF-8"?>
<!-- Created with Inkscape (http://www.inkscape.org/) -->
<svg width="64" height="64" version="1.1" viewBox="0 0 16.933 16.933" xmlns="http://www.w3.org/2000/svg">
 <g transform="matrix(1.1395 0 0 1.1428 -92.47 -86.491)" fill="#ffc800" stroke-linecap="round" stroke-linejoin="round">
  <path d="m88.605 75.681a7.4083 7.4083 0 0 0-7.4081 7.4083 7.4083 7.4083 0 0 0 7.4081 7.4083 7.4083 7.4083 0 0 0 7.4085-7.4083 7.4083 7.4083 0 0 0-7.4085-7.4083zm0 3.2411c0.51455 0 0.92878 0.41301 0.92878 0.92604v2.3151h2.322c0.51455 0 0.92879 0.41301 0.92879 0.92604 0 0.51302-0.41424 0.92604-0.92879 0.92604h-2.322v2.3151c0 0.51302-0.41424 0.92604-0.92878 0.92604-0.51454 0-0.92878-0.41301-0.92878-0.92604v-2.3151h-2.322c-0.51455 0-0.92878-0.41301-0.92878-0.92604 0-0.51302 0.41424-0.92604 0.92878-0.92604h2.322v-2.3151c0-0.51302 0.41424-0.92604 0.92878-0.92604z" stroke-width="2.1167"/>
 </g>
</svg>
