<?xml version="1.0" encoding="UTF-8"?>
<!-- Created with Inkscape (http://www.inkscape.org/) -->
<svg width="16.933mm" height="16.933mm" version="1.1" viewBox="0 0 16.933 16.933" xmlns="http://www.w3.org/2000/svg">
 <g transform="translate(-93.411 -81.143)" fill-rule="evenodd" stroke-linecap="round">
  <path d="m110.34 89.609a8.4667 8.4667 0 0 1-8.4667 8.4667 8.4667 8.4667 0 0 1-8.4667-8.4667 8.4667 8.4667 0 0 1 8.4667-8.4667 8.4667 8.4667 0 0 1 8.4667 8.4667z" fill="#aaa" stroke-width=".706"/>
  <path d="m99.44 90.808c-2.0126 0.81083-3.4257 2.5643-3.7207 4.6114 1.599 1.6967 3.8269 2.6554 6.1583 2.6563 2.3314-8.98e-4 4.5624-0.96298 6.1614-2.6596-0.2949-2.0466-1.7104-3.7965-3.7223-4.6076-0.67511 0.59109-1.5418 0.91703-2.4391 0.91726-0.89684-7.49e-4 -1.763-0.32685-2.4376-0.91777z" fill="#333" stroke-width=".706"/>
  <path d="m105.05 88.022a3.175 3.175 0 0 1-3.175 3.175 3.175 3.175 0 0 1-3.175-3.175 3.175 3.175 0 0 1 3.175-3.175 3.175 3.175 0 0 1 3.175 3.175z" fill="#333" stroke-width="1.3555"/>
 </g>
</svg>
