<?xml version="1.0" encoding="UTF-8"?>
<!-- Created with Inkscape (http://www.inkscape.org/) -->
<svg width="16.933mm" height="16.933mm" version="1.1" viewBox="0 0 16.933 16.933" xmlns="http://www.w3.org/2000/svg">
 <g transform="translate(-93.411 -81.143)">
  <g transform="matrix(.95859 0 0 .95859 .8546 3.2719)" stroke-width="1.0432">
   <g transform="matrix(1.02 -1.02 1.02 1.02 -89.058 103.16)" stroke-width=".72316">
    <g fill-rule="evenodd">
     <g fill="#fff">
      <rect x="98.51" y="88.792" width="2.9585" height="1.7824" ry="0"/>
      <rect x="99.726" y="87.278" width="2.9585" height="2.0214" ry="0"/>
      <path d="m102.3 90.813c-0.44746 0.38388-1.0254 0.43836-1.8819 0.33989-0.56819-0.06533-1.4626-0.52597-2.2988-0.4802l0.0028-1.8243 0.38307-0.0568c0.14954-0.42833 0.72416-1.9804 3.3304-1.9073l0.73456 0.1155c0.22883 0.03598 0.41813 0.1554 0.41813 0.34844 0 0.19304-0.18648 0.34844-0.41813 0.34844h-1.8945c-0.0364 0.84653-0.77378 1.2871-1.3775 1.4286" stroke="#ffc800" stroke-linecap="square" stroke-linejoin="round" stroke-width=".19164"/>
     </g>
     <path d="m103.21 83.122a2.1167 2.1167 90 0 0-0.69841-0.45635c0.00498 0.037458 0.00793 0.075691 0.00793 0.11468l-2.7e-4 1.3215c0 0.43974-0.35381 0.79355-0.79355 0.79355-0.43973 0-0.7938-0.35406-0.7938-0.7938l1e-5 -1.3212c0-0.0389 0.00293-0.076781 0.00793-0.11416a2.1167 2.1167 90 0 0-1.331 1.9647 2.1167 2.1167 90 0 0 1.3244 1.9623h-0.00211v0.30812l1.5884 2.53e-4v-0.30864l-0.00185 2.64e-4a2.1167 2.1167 90 0 0 1.3244-1.9623 2.1167 2.1167 90 0 0-0.63208-1.5089zm-0.69051 4.575-1.5881 1.1e-5 -2.9e-4 3.8197h0.00211a2.1167 2.1167 90 0 0-1.3244 1.9623 2.1167 2.1167 90 0 0 1.331 1.9647c-5e-3 -0.03737-0.00793-0.075261-0.00793-0.11416l-2.5e-4 -1.3215c0-0.43974 0.35408-0.79381 0.79381-0.79381 0.43974 0 0.7938 0.35406 0.7938 0.7938l2.5e-4 1.3215c0 0.03909-0.00319 0.076868-0.00819 0.11442a2.1167 2.1167 90 0 0 1.3308-1.965 2.1167 2.1167 90 0 0-1.3244-1.9623l0.00185 2.64e-4 3e-5 -3.82z" fill="#ffc800" stroke-width="3.827"/>
     <g fill="#fff" stroke="#ffc800" stroke-width=".19134">
      <rect x="101.49" y="87.697" width="1.7008" height=".80141" rx=".41813" ry=".4007"/>
      <path d="m101.52 89.3 1.13 3.3e-5c0.27025 8e-6 0.48782 0.17094 0.48782 0.38328v2e-6c0 0.21234-0.21757 0.38329-0.48782 0.38328l-1.13-3.3e-5c-0.27025-8e-6 -0.48782-0.17094-0.48782-0.38328v-2e-6c0-0.20679 0.21757-0.38329 0.48782-0.38328z"/>
      <rect x="101.21" y="88.498" width="1.9534" height=".80141" rx=".45297" ry=".4007"/>
      <rect x="101.47" y="90.116" width="1.3938" height=".69688" rx=".34844" ry=".34844"/>
     </g>
    </g>
   </g>
  </g>
 </g>
</svg>
