<?xml version="1.0" encoding="UTF-8"?>
<!-- Created with Inkscape (http://www.inkscape.org/) -->
<svg width="16.933mm" height="16.933mm" version="1.1" viewBox="0 0 16.933 16.933" xmlns="http://www.w3.org/2000/svg">
 <g transform="translate(-93.411 -81.143)">
  <g fill="none" stroke="#fff" stroke-linecap="round">
   <path d="m96.586 97.723h10.583" stroke-width=".70548"/>
   <path d="m101.91 97.566v-2.7374" stroke-width=".70555"/>
   <path d="m107.11 89.635a5.194 5.194 0 0 1-2.597 4.4981 5.194 5.194 0 0 1-5.194 0 5.194 5.194 0 0 1-2.597-4.4981" stroke-width=".70591"/>
  </g>
  <path d="m101.91 81.143c-2.0839 0-3.7616 1.4944-3.7616 3.3511v0.77784h1.5281c0.19538 0 0.35264 0.15728 0.35264 0.35265 0 0.19537-0.15733 0.35265-0.35264 0.35265h-1.5281v0.94039h1.5281c0.19538 0 0.35264 0.15728 0.35264 0.35265 0 0.19537-0.15733 0.35265-0.35264 0.35265h-1.5281v0.94039h1.5281c0.19538 0 0.35264 0.15728 0.35264 0.35265 0 0.19537-0.15733 0.35264-0.35264 0.35264h-1.5281v0.77784c0 1.8567 1.6777 3.3511 3.7616 3.3511 2.0839 0 3.7616-1.4944 3.7616-3.3511v-0.77784h-1.5282c-0.19538 0-0.35264-0.15728-0.35264-0.35264 0-0.19537 0.15733-0.35265 0.35264-0.35265h1.5282v-0.94039h-1.5282c-0.19538 0-0.35264-0.15728-0.35264-0.35265 0-0.19537 0.15733-0.35265 0.35264-0.35265h1.5282v-0.94039h-1.5282c-0.19538 0-0.35264-0.15728-0.35264-0.35265 0-0.19537 0.15733-0.35265 0.35264-0.35265h1.5282v-0.77784c0-1.8567-1.6777-3.3511-3.7616-3.3511z" fill="#fff" fill-rule="evenodd"/>
  <g fill="none" stroke="#fff" stroke-linecap="round" stroke-width=".70631">
   <path transform="matrix(.87766 .47929 .52043 -.85391 0 0)" d="m138.85-26.341a3.6343 3.6115 0 0 1-1.8172 3.1277"/>
   <path transform="matrix(.87766 .47929 .52043 -.85391 0 0)" d="m137.21-26.638a2.5487 2.5327 0 0 1-1.2744 2.1934"/>
  </g>
  <g transform="matrix(-1 0 0 1 203.83 1.5326e-5)" fill="none" stroke="#fff" stroke-linecap="round" stroke-width=".70631">
   <path transform="matrix(.87766 .47929 .52043 -.85391 0 0)" d="m138.85-26.341a3.6343 3.6115 0 0 1-1.8172 3.1277"/>
   <path transform="matrix(.87766 .47929 .52043 -.85391 0 0)" d="m137.21-26.638a2.5487 2.5327 0 0 1-1.2744 2.1934"/>
  </g>
 </g>
</svg>
